PathFileType	4	(X/Y/Z)	C:/Users/beibeiliu/ov580/test_trc/capture2\sequence.18_training_dense_left.trc
DataRate	CameraRate	NumFrames	NumMarkers	Units	OrigDataRate	OrigDataStartFrame	OrigNumFrames
120	120	14	19	mm	120	50	398
Frame#	Time	ThumbCMC			ThumbMCP			ThumbIP			ThumbTip			IndexMCP			IndexPIP			IndexTip			MiddleMCP			MiddlePIP			MiddleTip			RingMCP			RingPIP			RingTip			PinkyMCP			PinkyPIP			PinkyTip			BackHand1			BackHand2			BackHand3	
		X0	Y0	Z0	X1	Y1	Z1	X2	Y2	Z2	X3	Y3	Z3	X4	Y4	Z4	X5	Y5	Z5	X6	Y6	Z6	X7	Y7	Z7	X8	Y8	Z8	X9	Y9	Z9	X10	Y10	Z10	X11	Y11	Z11	X12	Y12	Z12	X13	Y13	Z13	X14	Y14	Z14	X15	Y15	Z15	X16	Y16	Z16	X17	Y17	Z17	X18	Y18	Z18	
49	0.408333	-172.208	111.61	-1.63546	-159.067	114.908	-22.4897	-154.236	120.74	-49.6938	-150.884	119.512	-74.2551	-160.925	96.0425	-71.4401	-132.275	92.5642	-63.2578	-138.08	91.2308	-32.2506	-159.372	74.8381	-67.8536	-131.834	72.2131	-51.9436	-150.901	75.5468	-18.0424	-156.968	55.8266	-60.8583	-133.958	59.9812	-38.8567	-153.905	65.3633	-12.389	-163.551	43.1139	-50.2921	-139.354	49.5993	-32.5959	-156.829	56.6556	-3.5279	-203.771	56.9002	-25.8422	-204.826	62.0306	6.19079	-201.987	89.1173	-10.0046	
50	0.416667	-176.804	109.909	2.21338	-164.375	117.327	-24.6516	-159.306	121.022	-49.6732	-155.217	123.266	-73.8274	-165.288	97.342	-68.1819	-132.98	92.6407	-62.9578	-139.299	94.5987	-31.7197	-157.463	73.7243	-65.8298	-129.617	76.1308	-49.7585	-147.431	77.5757	-18.5744	-154.439	57.1767	-58.7588	-130.419	62.3223	-35.2727	-155.059	68.5699	-11.3786	-151.718	42.7429	-48.1591	-132.789	49.7858	-28.2399	-151.381	60.8142	-4.33843	-199.503	51.8216	-23.0932	-204.361	54.0905	5.59595	-203.715	83.6259	-11.2383	
51	0.425	-180.379	108.53	1.84596	-167.926	119.584	-23.4987	-163.349	119.295	-49.8526	-159.58	120.132	-76.8851	-163.87	93.0932	-69.4872	-134.579	96.8307	-62.2086	-145.009	94.7094	-29.0947	-155.515	73.4302	-64.2881	-128.836	82.1695	-51.2819	-151.774	80.234	-15.9426	-149.304	59.5949	-56.5615	-128.854	69.78	-34.5705	-150.53	68.6015	-10.2526	-146.765	39.9179	-45.4345	-130.462	56.9786	-23.6058	-153.185	63.4543	-5.52462	-194.006	48.3586	-23.481	-199.171	48.2808	8.13583	-204.417	80.4057	-12.2284	
52	0.433333	-184.33	102.376	-0.924623	-172.846	114.646	-21.8335	-169.294	119.157	-56.0031	-163.032	117.062	-76.1699	-164.395	88.754	-68.4342	-135.542	97.4078	-62.1951	-147.096	95.4291	-29.545	-148.905	72.4158	-64.5387	-127.622	86.0485	-49.0422	-149.944	87.2375	-17.7056	-144.11	55.7212	-52.6165	-126.83	73.6197	-32.9371	-151.627	71.1727	-9.05822	-139.175	43.5013	-41.932	-127.901	61.9961	-20.3488	-154.444	62.7877	0.545889	-187.058	44.6623	-22.6061	-196.138	43.7638	11.7361	-202.981	74.7279	-13.7967	
53	0.441667	-187.57	103.115	1.14976	-177.478	113.852	-27.1885	-172.422	118.4	-54.8577	-165.178	115.146	-73.6154	-164.802	87.9051	-67.3625	-137.082	101.887	-60.3821	-146.24	101.23	-30.1001	-148.895	77.2285	-63.1735	-127.449	90.7376	-43.8655	-150.285	86.6288	-15.8831	-140.629	63.7279	-52.028	-124.699	77.1381	-31.1599	-148.831	76.9861	-8.92188	-135.95	48.835	-40.4656	-125.58	68.9885	-20.4709	-149.924	67.707	-0.222696	-182.896	38.2785	-16.7496	-191.188	42.5297	11.258	-201.792	70.8503	-13.2913	
54	0.45	-189.313	99.6919	-3.0428	-178.875	111.091	-23.9621	-174.611	116.296	-52.8705	-166.67	114.054	-72.6699	-163.067	86.4022	-66.7318	-137.397	104.969	-57.5839	-147.976	102.653	-28.89	-145.327	72.8805	-60.0604	-128.72	94.4826	-41.8325	-152.113	89.2055	-14.8311	-134.641	61.7117	-47.976	-122.775	81.5643	-25.6863	-148.6	77.7109	-8.25229	-127.915	53.7981	-37.5823	-122.132	73.5619	-18.022	-148.113	68.73	-1.51567	-175.232	36.8234	-16.1843	-182.363	40.6063	15.8577	-197.285	66.982	-9.84068	
55	0.458333	-187.894	95.7957	-0.359632	-179.894	109.852	-26.2544	-174.002	111.932	-50.6374	-169.331	115.666	-75.1768	-163.088	83.2364	-64.5639	-139.7	104.406	-59.2123	-149.668	102.851	-28.0059	-145.08	76.0565	-58.9073	-129.07	99.6389	-41.9348	-147.227	90.1869	-13.4007	-134.783	65.4068	-47.398	-122.99	88.3521	-24.0379	-146.9	79.7128	-6.18923	-122.651	55.8914	-35.3264	-119.458	78.8694	-18.45	-146.58	67.5554	2.34812	-169.46	39.2968	-13.3783	-178.858	41.663	14.8019	-195.668	60.9786	-5.58045	
56	0.466667	-188.831	94.4424	-1.20434	-181.63	109.093	-24.8633	-177.413	113.246	-51.5104	-171.332	115.231	-71.758	-161.64	85.2794	-65.2757	-142.011	107.72	-59.9545	-149.779	107.366	-28.8977	-141.33	78.3608	-58.0809	-127.98	100.6	-38.7285	-148.987	88.9803	-11.2706	-130.827	67.6389	-44.8453	-122.085	91.4766	-22.9506	-147.851	81.2557	-5.63227	-122.386	57.8097	-32.7071	-116.91	82.6149	-17.2311	-142.053	71.204	4.54335	-160.293	35.5802	-14.0861	-172.524	37.9098	20.2134	-190.349	60.7385	-7.67416	
57	0.475	-186.435	92.2869	4.84909	-180.209	105.421	-19.8837	-174.043	107.689	-49.0441	-169.154	109.83	-69.4935	-158.531	86.6061	-64.174	-139.758	106.755	-57.4636	-150.75	105.397	-26.8	-138.184	78.2463	-56.0738	-125.694	101.7	-41.4807	-148.27	90.4611	-10.0426	-125.557	73.9986	-44.612	-121.349	96.2149	-24.3798	-142.08	85.2042	-3.71629	-116.207	61.686	-30.8651	-114.604	86.1189	-10.885	-137.987	74.9007	8.55719	-154.245	37.7418	-8.88183	-169.205	40.4026	19.3119	-186.111	56.6736	-2.91485	
58	0.483333	-186.968	93.3964	6.06283	-178.041	104.349	-18.9076	-176.207	108.725	-44.4746	-169.461	108.63	-69.6564	-158.034	83.6305	-61.2605	-139.178	107.093	-58.4347	-150.27	103.917	-23.9279	-137.103	77.4069	-53.1423	-126.304	104.492	-35.8041	-146.82	92.7936	-8.30404	-123.356	71.8189	-42.597	-118.266	96.7443	-22.2678	-138.709	86.7191	-1.80253	-111.737	64.4717	-29.8271	-112.758	88.448	-12.7211	-136.77	75.0459	8.57149	-152.536	39.9055	-11.037	-161.689	39.7518	22.9944	-181.073	54.7244	-2.42295	
59	0.491667	-184.383	92.3779	8.55925	-176.57	103.379	-17.598	-174.966	106.93	-43.6409	-167.025	105.601	-67.9946	-155.809	87.4744	-62.6086	-141.552	112.245	-54.7671	-145.71	105.796	-25.2716	-132.774	80.4814	-53.4022	-124.653	105.847	-38.923	-140.404	92.5946	-7.33878	-119.2	76.0689	-42.2504	-118.928	98.9775	-21.5918	-138.567	82.6564	1.42558	-109.804	64.712	-27.8773	-111.506	89.8156	-7.80376	-131.21	76.8698	7.99002	-144.872	36.891	-4.53131	-155.338	37.3031	23.7573	-180.02	55.3655	-1.36616	
60	0.5	-182.522	89.7422	9.88975	-176.022	100.443	-15.571	-175.343	104.386	-46.6851	-168.846	102.687	-66.2695	-155.564	82.7941	-57.7594	-138.109	109.265	-55.965	-146.108	102.598	-20.8531	-135.426	82.1796	-53.374	-123.388	106.009	-38.8492	-144.058	95.1652	-6.18954	-117.478	76.6419	-41.6579	-114.5	99.5596	-20.0057	-135.079	86.4779	0.43519	-108.363	68.4606	-28.4933	-107.045	91.4115	-9.51148	-127.748	79.3218	12.3998	-141.751	39.0344	-8.78666	-152.179	39.2455	25.7264	-170.617	52.6282	1.58124	
61	0.508333	-180.495	88.3132	9.31009	-176.774	100.841	-15.6056	-176.937	104.599	-42.5561	-172.861	104.123	-67.9912	-152.461	82.0233	-57.4199	-137.324	110.138	-53.8669	-146.986	106.007	-21.2915	-132.494	84.3125	-52.4769	-123.266	107.683	-34.2632	-141.347	94.2517	-5.67348	-113.905	76.7564	-39.8158	-115.051	101.818	-20.599	-132.124	83.136	3.0475	-102.097	72.21	-29.1527	-107.285	94.2618	-8.89262	-127.248	79.6608	9.36848	-135.792	39.2753	-8.40596	-145.848	39.5993	22.9326	-173.227	52.1962	2.70192	
62	0.516667	-178.847	86.7232	11.7266	-176.072	97.9201	-17.1349	-176.309	101.586	-39.4941	-173.023	100.726	-66.7411	-152.735	84.5889	-58.8902	-140.196	110.913	-54.7453	-146.606	101.355	-20.2952	-133.232	82.8448	-51.6133	-126.865	110.19	-34.4265	-138.143	93.873	-4.55424	-113.99	80.4301	-40.4559	-116.165	103.801	-22.4247	-133.11	83.2895	2.34112	-103.072	73.0451	-29.1087	-106.661	95.7786	-8.99384	-126.699	79.0588	12.7256	-137.002	38.8325	-3.94394	-144.738	40.6379	24.3225	-168.158	51.3784	3.27392	
